# xmcd CD database file
#
# Track frame offsets:
#	150
#	15937
#	28952
#	44805
#	59295
#	82050
#	94452
#	104375
#	119202
#	132650
#	143182
#	160162
#	167082
#	180712
#	195577
#	209387
#	223285
#	236342
#	248662
#	265790
#	277195
#	289770
#	300422
#	311527
#
# Disc length: 4311 seconds
#
# Revision: 1
# Processed by: cddbd v1.5.1PL0 Copyright (c) Steve Scherf et al.
# Submitted via: CDex 1.51
#
DISCID=7310d518
DTITLE=VARIOUS Elfin Music Artists - Elfin Music Sampler No. 5
DYEAR=1998
DGENRE=New Age
TTITLE0=Grand Eagle (Ed Van Fleet)
TTITLE1=Turning Point (Turning Point)
TTITLE2=The Light Of Midnight (Ed Van Fleet)
TTITLE3=Evening Passages (Ed Van Fleet)
TTITLE4=Seduction (Amici)
TTITLE5=The Forgotten Tribe (Ed Van Fleet)
TTITLE6=Legends Of Ireland (Amici)
TTITLE7=Crimson Collection (Kim Robertson Singh Kaur and Mosaic)
TTITLE8=Gratitude (Kim Roberson and Virginia Kron)
TTITLE9=Angels In Disguise (Kim Robertson)
TTITLE10=Love A Song to a Planet (Kim Robertson)
TTITLE11=Hushabye Lullaby (Lisa Redfern)
TTITLE12=Circle (Spirit Drummers)
TTITLE13=Fire Journeys (Ed Van Fleet)
TTITLE14=Move Into the Sound (Big Beat Collective)
TTITLE15=Mirage (Peter Mathers)
TTITLE16=Drums Of Passion (Michael Uyttebroek)
TTITLE17=Sundance (Peter Mathers)
TTITLE18=Oceans (Ed Van Fleet)
TTITLE19=Cathedrals And Castles (Steve Middleton
TTITLE20=One Sun One Moon: A Journey (Richy Kicklighter)
TTITLE21=Ambient Dreams (Brian Jack And Peter Swann
TTITLE22=Acoustical Scenery (Steve Middleton)
TTITLE23=Pachelbel With Ocean (Liv and Let Liv)
EXTD=Ed Van Fleet YEAR: 1998
EXTT0=
EXTT1=
EXTT2=
EXTT3=
EXTT4=
EXTT5=
EXTT6=
EXTT7=
EXTT8=
EXTT9=
EXTT10=
EXTT11=
EXTT12=
EXTT13=
EXTT14=
EXTT15=
EXTT16=
EXTT17=
EXTT18=
EXTT19=
EXTT20=
EXTT21=
EXTT22=
EXTT23=
PLAYORDER=
